<svg xmlns="http://www.w3.org/2000/svg" xmlns:xlink="http://www.w3.org/1999/xlink" width="15" height="15" viewBox="0 0 15 15">
    <defs>
        <path id="a" d="M14.823 8.035l-.008.012c-.027.04-.04.088-.075.126l-5 5.5a1.001 1.001 0 0 1-1.48-1.346L11.74 8.5H1a1 1 0 1 1 0-2h10.74L8.26 2.673a1 1 0 0 1 1.48-1.346l5 5.5c.034.038.048.085.075.126l.008.012c.028.044.067.083.09.13l.014.046c.022.056.026.114.038.17.01.057.03.11.03.165 0 .008.005.016.005.024s-.005.015-.005.023c0 .056-.02.109-.03.164-.012.058-.016.116-.038.17-.005.017-.009.032-.015.047-.022.048-.06.086-.089.13"/>
    </defs>
    <g fill="none" fill-rule="evenodd">
        <mask id="b" fill="#fff">
            <use xlink:href="#a"/>
        </mask>
        <use fill="currentColor" xlink:href="#a"/>
        <g fill="currentColor" mask="url(#b)">
            <path d="M0 0h15v15H0z"/>
        </g>
    </g>
</svg>
