<?xml version="1.0" encoding="UTF-8"?>
<svg width="24px" height="24px" viewBox="0 0 24 24" version="1.1" xmlns="http://www.w3.org/2000/svg" xmlns:xlink="http://www.w3.org/1999/xlink">
    <title>icon-more</title>
    <g id="icon-more" stroke="none" stroke-width="1" fill="none" fill-rule="evenodd">
        <g id="Group" fill="#D8D8D8" opacity="0">
            <g id="Rectangle">
                <rect x="0" y="0" width="24" height="24"></rect>
            </g>
        </g>
        <path d="M5.5,10 C6.6045695,10 7.5,10.8954305 7.5,12 C7.5,13.1045695 6.6045695,14 5.5,14 C4.3954305,14 3.5,13.1045695 3.5,12 C3.5,10.8954305 4.3954305,10 5.5,10 Z M12,10 C13.1045695,10 14,10.8954305 14,12 C14,13.1045695 13.1045695,14 12,14 C10.8954305,14 10,13.1045695 10,12 C10,10.8954305 10.8954305,10 12,10 Z M18.5,10 C19.6045695,10 20.5,10.8954305 20.5,12 C20.5,13.1045695 19.6045695,14 18.5,14 C17.3954305,14 16.5,13.1045695 16.5,12 C16.5,10.8954305 17.3954305,10 18.5,10 Z" id="Combined-Shape" fill="#333333" fill-rule="nonzero"></path>
    </g>
</svg>